

SiMBALORD PRESENTS
... A UKB RELEASE

TiTLE: Black Death
TYPE : x264 DVDRip
SiZE : 1.06 GB (1,141,069,408 bytes)

PLOT : Set during the time of the first
outbreak of bubonic plague in England,
a young monk is tasked with learning the
truth about reports of people being
brought back to life in a small village.

CAST :
Sean Bean ... Ulric
Eddie Redmayne ... Osmund
Carice van Houten ... Langiva
David Warner ... The Abbot
David Masterson ... Man in village
Kimberley Nixon ... Averill
John Lynch ... Wolfstan
Johnny Harris ... Mold
Andy Nyman ... Dalywag
Tim McInnerny ... Hob
Emun Elliott ... Swire
Marianne Graffam ... Suspected Witch
Tygo Gernandt ... Ivo
Martin Hentschel ... Bailiff Villager Man
Nike Martens ... Elena

iMDB : tt1181791

General
Complete name : Black.Death[x264][Simbalord.UKB.Release].mp4
Format : MPEG-4
Format profile : Base Media
Codec ID : isom
File size : 1.06 GiB
Duration : 1h 41mn
Overall bit rate : 1 499 Kbps

Video
ID : 1
Format : AVC
Format/Info : Advanced Video Codec
Format profile : Main@L4.1
Format settings, CABAC : Yes
Format settings, ReFrames : 3 frames
Codec ID : avc1
Codec ID/Info : Advanced Video Coding
Duration : 1h 41mn
Bit rate mode : Variable
Bit rate : 1 300 Kbps
Maximum bit rate : 3 991 Kbps
Width : 720 pixels
Height : 296 pixels
Display aspect ratio : 2.40:1
Frame rate mode : Constant
Frame rate : 24.000 fps
Resolution : 8 bits
Colorimetry : 4:2:0
Scan type : Progressive
Bits/(Pixel*Frame) : 0.254
Stream size : 944 MiB (87%)
Writing library : x264 core 65 r999kMod cc51047
Encoding settings : cabac=1 / ref=3 / deblock=1:0:0 / analyse=0x1:0 / me=dia / subme=1 /
psy_rd=0.0:0.0 / mixed_ref=1 / me_range=16 / chroma_me=1 / trellis=0 /
8x8dct=0 / cqm=0 / deadzone=21,11 / chroma_qp_offset=0 / threads=2 /
thread_queue=2 / nr=0 / decimate=1 / mbaff=0 / bframes=3 / b_pyramid=1 /
b_adapt=1 / b_bias=0 / direct=3 / wpredb=0 / keyint=250 / keyint_min=25 /
scenecut=40(pre) / rc=2pass / bitrate=1300 / ratetol=1.0 / qcomp=0.60 /
qpmin=10 / qpmax=51 / qpstep=4 / cplxblur=20.0 / qblur=0.5 / ip_ratio=1.40 /
pb_ratio=1.30 / aq=1:1.00

Audio
ID : 2
Format : AAC
Format/Info : Advanced Audio Codec
Format version : Version 4
Format profile : LC
Format settings, SBR : No
Codec ID : 40
Duration : 1h 41mn
Bit rate mode : Variable
Bit rate : 192 Kbps
Maximum bit rate : 341 Kbps
Channel(s) : 6 channels
Channel positions : Front: L C R, Rear: L R, LFE
Sampling rate : 48.0 KHz
Stream size : 142 MiB (13%)